<svg width="5257" height="1046" viewBox="0 0 5257 1046" fill="none" xmlns="http://www.w3.org/2000/svg">
<path d="M466.988 30.2921L773.536 789.76H587.582L531.427 637.866H242.369L186.215 789.76H0.260254L306.809 30.2921H466.988ZM472.511 485.973L387.819 265.037H385.978L301.286 485.973H472.511Z" fill="white"/>
<path d="M742.15 30.2921H962.166C1067.72 30.2921 1157.94 66.5011 1232.81 138.919C1307.69 210.723 1345.12 300.939 1345.12 409.566C1345.12 518.806 1307.69 609.636 1232.81 682.053C1158.55 753.858 1068.34 789.76 962.166 789.76H742.15V30.2921ZM915.217 635.105H941.913C1005.13 635.105 1056.68 613.931 1096.57 571.585C1137.07 528.626 1157.63 474.926 1158.25 410.486C1158.25 346.047 1137.99 292.347 1097.49 249.387C1057.6 206.427 1005.74 184.947 941.913 184.947H915.217V635.105Z" fill="white"/>
<path d="M1533.76 485.052V789.76H1360.69V30.2921H1533.76V333.159H1778.63V30.2921H1951.69V789.76H1778.63V485.052H1533.76Z" fill="white"/>
<path d="M2001.32 30.2921H2221.34C2326.89 30.2921 2417.11 66.5011 2491.98 138.919C2566.86 210.723 2604.29 300.939 2604.29 409.566C2604.29 518.806 2566.86 609.636 2491.98 682.053C2417.72 753.858 2327.51 789.76 2221.34 789.76H2001.32V30.2921ZM2174.39 635.105H2201.08C2264.3 635.105 2315.85 613.931 2355.74 571.585C2396.24 528.626 2416.8 474.926 2417.42 410.486C2417.42 346.047 2397.16 292.347 2356.66 249.387C2316.77 206.427 2264.91 184.947 2201.08 184.947H2174.39V635.105Z" fill="white"/>
<path d="M2689.22 736.424C2637.06 689.783 2610.98 629.949 2610.98 556.919C2610.98 483.89 2638.29 424.055 2692.9 377.415C2747.52 330.161 2815.03 306.534 2895.42 306.534C2974.59 306.534 3041.17 330.161 3095.18 377.415C3149.8 424.669 3177.11 484.504 3177.11 556.919C3177.11 629.335 3150.41 689.17 3097.02 736.424C3044.24 783.065 2977.04 806.385 2895.42 806.385C2810.73 806.385 2742 783.065 2689.22 736.424ZM2815.34 476.833C2794.47 497.698 2784.04 524.394 2784.04 556.919C2784.04 589.445 2794.16 616.141 2814.41 637.006C2834.67 657.258 2861.36 667.384 2894.5 667.384C2926.41 667.384 2952.5 656.951 2972.75 636.086C2993.61 615.22 3004.05 588.831 3004.05 556.919C3004.05 524.394 2993.31 497.698 2971.83 476.833C2950.96 455.967 2925.19 445.535 2894.5 445.535C2863.2 445.535 2836.81 455.967 2815.34 476.833Z" fill="white"/>
<path d="M3192.62 792.578V0.91688H3355.56V792.578H3192.62Z" fill="white"/>
<path d="M3449.39 736.424C3397.23 689.783 3371.14 629.949 3371.14 556.919C3371.14 483.89 3398.45 424.055 3453.07 377.415C3507.69 330.161 3575.2 306.534 3655.59 306.534C3734.76 306.534 3801.34 330.161 3855.35 377.415C3909.96 424.669 3937.27 484.504 3937.27 556.919C3937.27 629.335 3910.58 689.17 3857.19 736.424C3804.41 783.065 3737.21 806.385 3655.59 806.385C3570.9 806.385 3502.17 783.065 3449.39 736.424ZM3575.5 476.833C3554.64 497.698 3544.2 524.394 3544.2 556.919C3544.2 589.445 3554.33 616.141 3574.58 637.006C3594.83 657.258 3621.53 667.384 3654.67 667.384C3686.58 667.384 3712.66 656.951 3732.91 636.086C3753.78 615.22 3764.21 588.831 3764.21 556.919C3764.21 524.394 3753.47 497.698 3731.99 476.833C3711.13 455.967 3685.35 445.535 3654.67 445.535C3623.37 445.535 3596.98 455.967 3575.5 476.833Z" fill="white"/>
<path d="M3931.62 908.565L4065.1 843.207C4089.64 883.71 4132.29 903.962 4193.05 903.962C4221.28 903.962 4247.36 894.757 4271.3 876.346C4295.84 858.549 4308.12 830.933 4308.12 793.498V758.517C4279.27 790.429 4227.72 806.385 4153.47 806.385C4085.35 806.385 4029.19 782.451 3985.01 734.583C3940.82 686.102 3918.73 626.881 3918.73 556.92C3918.73 486.959 3940.82 427.738 3985.01 379.256C4029.19 330.775 4085.35 306.534 4153.47 306.534C4214.22 306.534 4264.85 325.252 4305.36 362.687H4308.12V320.342H4471.05V805.465C4471.05 882.176 4445.58 941.397 4394.65 983.128C4343.71 1024.86 4276.51 1045.72 4193.05 1045.72C4058.04 1045.72 3970.89 1000 3931.62 908.565ZM4123.09 476.833C4102.22 497.699 4091.79 524.394 4091.79 556.92C4091.79 589.445 4101.92 616.141 4122.17 637.006C4142.42 657.258 4169.12 667.384 4202.26 667.384C4234.17 667.384 4260.25 656.951 4280.5 636.086C4301.37 615.22 4311.8 588.832 4311.8 556.92C4311.8 524.394 4301.06 497.699 4279.58 476.833C4258.71 455.968 4232.94 445.535 4202.26 445.535C4170.96 445.535 4144.57 455.968 4123.09 476.833Z" fill="white"/>
<path d="M4536.27 57.0696C4555.3 38.0451 4578 28.5329 4604.39 28.5329C4630.78 28.5329 4653.49 38.0451 4672.51 57.0696C4691.54 76.094 4701.05 98.8005 4701.05 125.189C4701.05 151.578 4691.54 174.285 4672.51 193.309C4653.49 212.333 4630.78 221.846 4604.39 221.846C4578 221.846 4555.3 212.333 4536.27 193.309C4517.25 174.285 4507.74 151.578 4507.74 125.189C4507.74 98.8005 4517.25 76.094 4536.27 57.0696ZM4520.62 320.343V792.578H4683.56V320.343H4520.62Z" fill="white"/>
<path d="M4770.03 734.583C4725.84 686.101 4703.75 626.88 4703.75 556.919C4703.75 486.959 4725.84 427.738 4770.03 379.256C4814.21 330.774 4870.36 306.534 4938.48 306.534C5001.08 306.534 5052.63 326.172 5093.13 365.448V320.342H5256.07V792.577H5094.98V739.186H5093.13C5052.63 783.985 5001.08 806.385 4938.48 806.385C4870.36 806.385 4814.21 782.451 4770.03 734.583ZM4908.11 476.833C4887.24 497.698 4876.81 524.394 4876.81 556.919C4876.81 589.445 4886.93 616.141 4907.19 637.006C4927.44 657.258 4954.13 667.384 4987.27 667.384C5019.18 667.384 5045.27 656.951 5065.52 636.086C5086.38 615.22 5096.82 588.831 5096.82 556.919C5096.82 524.394 5086.08 497.698 5064.6 476.833C5043.73 455.967 5017.96 445.535 4987.27 445.535C4955.97 445.535 4929.59 455.967 4908.11 476.833Z" fill="white"/>
</svg>
