<svg xmlns="http://www.w3.org/2000/svg" viewBox="0 0 4000 30" width="100%">
  <path d="M -280 30 Q -208.57 30 -137.14 15 Q 5.71 -15 148.57 15 Q 220 30 291.43 30 Q 362.86 30 434.29 15 Q 577.14 -15 720 15 Q 791.43 30 862.86 30 Q 934.29 30 1005.71 15 Q 1148.57 -15 1291.43 15 Q 1362.86 30 1434.29 30 Q 1505.71 30 1577.14 15 Q 1720 -15 1862.86 15 Q 1934.29 30 2005.71 30 Q 2077.14 30 2148.57 15 Q 2291.43 -15 2434.29 15 Q 2505.71 30 2577.14 30 Q 2648.57 30 2720 15 Q 2862.86 -15 3005.71 15 Q 3077.14 30 3148.57 30 Q 3220 30 3291.43 15 Q 3434.29 -15 3577.14 15 Q 3648.57 30 3720 30 Q 3791.43 30 3862.86 15 Q 4005.71 -15 4148.57 15 Q 4220 30 4291.43 30 L 4000 30 L 0 30 Z" fill="#ffffff"></path>
</svg>